<svg width="60" height="60" viewBox="0 0 60 60" fill="none" xmlns="http://www.w3.org/2000/svg">
<g clip-path="url(#clip0_302_8814)">
<path d="M26.0131 15.6953C26.0131 15.6863 26.0159 15.6781 26.0159 15.669C26.0159 13.6115 25.189 11.7458 23.8537 10.3796C23.8365 10.3641 23.8137 10.3586 23.7964 10.3414C23.7773 10.3223 23.7718 10.2968 23.7537 10.2777C22.3856 8.92875 20.5091 8.0928 18.4397 8.0928C14.2627 8.0928 10.8644 11.4911 10.8644 15.669C10.8644 19.8469 14.2627 23.2452 18.4397 23.2452C22.6057 23.2452 25.995 19.8659 26.0141 15.7036C26.0141 15.7017 26.0131 15.699 26.0131 15.6953ZM24.1939 15.7627C24.143 18.8918 21.576 21.4268 18.4397 21.4268C15.2661 21.4268 12.6837 18.8444 12.6837 15.6699C12.6837 12.4954 15.2661 9.91298 18.4397 9.91298C19.906 9.91298 21.2949 10.4642 22.3674 11.4693C22.4074 11.5202 22.4556 11.5748 22.5102 11.6285L22.7094 11.8186C23.6427 12.8501 24.1666 14.1627 24.1948 15.548L24.1939 15.7627Z" fill="#FFC327"/>
<path d="M54.073 35.8192H51.8582C51.457 33.8172 50.6729 31.9198 49.5468 30.2142L51.1059 28.6551C51.7071 28.0539 52.0373 27.2543 52.0373 26.4038C52.0373 25.5524 51.7071 24.7538 51.1059 24.1525C50.5046 23.5513 49.705 23.2201 48.8536 23.2201C48.0031 23.2201 47.2055 23.5513 46.6024 24.1525L45.0533 25.7025C43.3468 24.5664 41.4458 23.776 39.44 23.3684V21.1845C39.44 19.4289 38.0128 18.0008 36.2564 18.0008C34.4999 18.0008 33.0728 19.4289 33.0728 21.1845V23.3684C32.1668 23.5531 31.2862 23.8251 30.4321 24.1625C30.3484 23.4558 30.0465 22.7981 29.5353 22.2869L28.944 21.6938C29.4534 20.8079 29.8491 19.8601 30.1193 18.8768H30.9488C32.7052 18.8768 34.1324 17.4487 34.1324 15.6932C34.1324 13.9376 32.7052 12.5095 30.9488 12.5095H30.1338C29.8663 11.5198 29.4707 10.5647 28.9613 9.67237L29.5353 9.0984C30.1374 8.4972 30.4676 7.69763 30.4676 6.84713C30.4676 5.99663 30.1356 5.19708 29.5334 4.59674C28.9321 3.99548 28.1326 3.66438 27.283 3.66438C26.4316 3.66438 25.6321 3.99639 25.0309 4.59764L24.466 5.16251C23.5718 4.64858 22.6149 4.25017 21.6216 3.97819V3.18319C21.6216 1.42764 20.1935 -0.000457764 18.438 -0.000457764C16.6824 -0.000457764 15.2543 1.42764 15.2543 3.18319V3.97819C14.261 4.24926 13.3041 4.64767 12.41 5.16251L11.8433 4.59491C11.242 3.99457 10.4425 3.66438 9.59287 3.66438C8.74237 3.66438 7.9428 3.99548 7.34067 4.59764C6.10086 5.83927 6.10086 7.85865 7.34158 9.1002L7.9146 9.67328C7.40525 10.5656 7.01139 11.5189 6.74305 12.5095H5.92804C4.17248 12.5095 2.74438 13.9376 2.74438 15.6932C2.74438 17.4487 4.17248 18.8768 5.92804 18.8768H6.75851C7.02958 19.861 7.42436 20.8079 7.93373 21.6938L7.34158 22.286C6.10086 23.5268 6.09995 25.5461 7.34158 26.7886C7.9428 27.3899 8.74237 27.721 9.59287 27.721C10.4425 27.721 11.242 27.3907 11.8442 26.7895L12.4445 26.1892C13.3286 26.694 14.2738 27.0851 15.2543 27.3535V28.2012C15.2543 29.9568 16.6824 31.3849 18.438 31.3849C19.9852 31.3849 21.275 30.2743 21.5597 28.8089L22.9642 30.2124C21.8381 31.9179 21.0558 33.8154 20.6538 35.8166H18.437C16.6815 35.8166 15.2534 37.2437 15.2534 39.0001C15.2534 40.7566 16.6815 42.1838 18.437 42.1838H20.6656C21.0758 44.1741 21.8636 46.0634 22.9934 47.7589L21.4061 49.3462C20.8039 49.9474 20.4728 50.7479 20.4728 51.5993C20.4728 52.4498 20.8039 53.2483 21.4051 53.8505C22.0063 54.4509 22.8059 54.7829 23.6564 54.7829C24.5069 54.7829 25.3055 54.4509 25.9077 53.8505L27.5041 52.2532C29.1996 53.373 31.0852 54.1544 33.0718 54.5573V56.8168C33.0718 58.5724 34.499 60.0005 36.2555 60.0005C38.0119 60.0005 39.4391 58.5724 39.4391 56.8168V54.5573C41.4266 54.1544 43.3105 53.373 45.006 52.2532L46.6024 53.8505C47.2037 54.4509 48.0031 54.7829 48.8545 54.7829C49.705 54.7829 50.5028 54.4509 51.1049 53.8514C51.7062 53.2502 52.0382 52.4498 52.0382 51.5993C52.0382 50.7479 51.7062 49.9492 51.1059 49.3471L49.5186 47.7589C50.6474 46.0634 51.4361 44.175 51.8472 42.1829H54.074C55.8304 42.1829 57.2576 40.7549 57.2576 38.9993C57.2566 37.2473 55.8286 35.8192 54.073 35.8192ZM19.8042 25.8726V28.204C19.8042 28.958 19.1938 29.5684 18.4398 29.5684C17.6857 29.5684 17.0753 28.958 17.0753 28.204V25.8726C15.2607 25.6306 13.5989 24.9176 12.209 23.8569L10.5598 25.5052C10.2933 25.7708 9.94395 25.9045 9.59468 25.9045C9.2454 25.9045 8.89612 25.7717 8.62957 25.5052C8.09745 24.9721 8.09745 24.108 8.62957 23.5749L10.2742 21.9304C9.20625 20.5414 8.48678 18.8767 8.24025 17.0594H5.92985C5.17579 17.0594 4.56543 16.449 4.56543 15.6949C4.56543 14.9409 5.17579 14.3306 5.92985 14.3306H8.23118C8.46953 12.5058 9.1854 10.834 10.2506 9.4377L8.62778 7.81582C8.09475 7.28283 8.09475 6.41869 8.62778 5.88566C9.1608 5.35262 10.025 5.35354 10.558 5.88566L12.1771 7.5039C13.5733 6.43052 15.247 5.70829 17.0744 5.46451V3.18593C17.0744 2.43185 17.6848 1.8215 18.4389 1.8215C19.1929 1.8215 19.8033 2.43185 19.8033 3.18593V5.46451C21.6307 5.70829 23.3062 6.43052 24.7015 7.5039L26.3179 5.88657C26.851 5.35262 27.7151 5.35354 28.2472 5.88566C28.7803 6.41778 28.7803 7.28191 28.2481 7.81492L26.6264 9.4377C27.6915 10.8349 28.4074 12.5068 28.6466 14.3315H30.9469C31.7011 14.3315 32.3114 14.9418 32.3114 15.6958C32.3114 16.4499 31.7011 17.0602 30.9469 17.0602H28.6375C28.391 18.8776 27.6706 20.5423 26.6036 21.9313L28.2481 23.5759C28.7812 24.108 28.7812 24.9731 28.2481 25.5052C27.9817 25.7717 27.6323 25.9045 27.283 25.9045C26.9338 25.9045 26.5845 25.7717 26.3179 25.5052L24.6688 23.856C23.2816 24.9176 21.6189 25.6306 19.8042 25.8726ZM54.074 40.3673H50.2845C50.0007 43.2281 48.86 45.8395 47.1217 47.9398L49.8188 50.6369C50.3518 51.169 50.3518 52.034 49.8188 52.5662C49.5523 52.8327 49.202 52.9646 48.8536 52.9646C48.5035 52.9646 48.1542 52.8318 47.8877 52.5662L45.1861 49.8646C43.0831 51.5902 40.4743 52.7199 37.619 52.9946V56.8195C37.619 57.5736 37.0087 58.1839 36.2546 58.1839C35.5005 58.1839 34.8901 57.5736 34.8901 56.8195V52.9946C32.034 52.719 29.4252 51.5902 27.3222 49.8646L24.6206 52.5662C24.3541 52.8327 24.0048 52.9646 23.6555 52.9646C23.3063 52.9646 22.9569 52.8318 22.6904 52.5662C22.1574 52.034 22.1574 51.169 22.6904 50.6369L25.3874 47.9398C23.65 45.8386 22.5094 43.2271 22.2256 40.3682H18.4361C17.6821 40.3682 17.0717 39.7579 17.0717 39.0038C17.0717 38.2498 17.6821 37.6394 18.4361 37.6394H22.222C22.4912 34.7696 23.6209 32.1462 25.3546 30.035L22.6895 27.3698C22.1565 26.8368 22.1565 25.9726 22.6895 25.4396C23.2226 24.9066 24.0867 24.9075 24.6197 25.4396L27.2803 28.0994C29.3897 26.3538 32.0158 25.2122 34.8901 24.9348V21.1854C34.8901 20.4313 35.5005 19.8209 36.2546 19.8209C37.0087 19.8209 37.619 20.4313 37.619 21.1854V24.9348C40.4934 25.2122 43.1185 26.3538 45.2288 28.0994L47.8877 25.4396C48.4207 24.9066 49.2848 24.9066 49.8178 25.4396C50.3509 25.9717 50.3509 26.8359 49.8178 27.3689L47.1545 30.0332C48.8882 32.1453 50.0162 34.7677 50.2863 37.6375H54.0703C54.8244 37.6375 55.4348 38.2479 55.4348 39.002C55.4375 39.757 54.8271 40.3673 54.074 40.3673Z" fill="#FFC327"/>
<path d="M44.2938 30.9665C44.2674 30.9392 44.2574 30.9038 44.2338 30.8747C42.1799 28.8489 39.3637 27.5954 36.2565 27.5954C29.9865 27.5954 24.8862 32.6957 24.8862 38.9657C24.8862 45.2357 29.9865 50.3358 36.2565 50.3358C42.51 50.3358 47.5975 45.2611 47.6239 39.0157C47.6239 39.012 47.623 39.0075 47.623 39.0038C47.623 38.993 47.6257 38.9838 47.6257 38.972C47.6257 38.9702 47.6257 38.9675 47.6257 38.9657C47.6257 35.8766 46.3823 33.0722 44.3748 31.0211C44.3502 30.9992 44.3184 30.9902 44.2938 30.9665ZM45.8047 39.0821C45.7419 44.2924 41.474 48.5166 36.2565 48.5166C30.9898 48.5166 26.7055 44.2323 26.7055 38.9657C26.7055 33.699 30.9898 29.4147 36.2565 29.4147C38.6979 29.4147 41.0092 30.3353 42.7911 32.0108L42.8229 32.0681L43.0067 32.2518C43.0713 32.3155 43.1358 32.37 43.1941 32.4173C44.8542 34.1729 45.7774 36.4469 45.8065 38.8492L45.8047 39.0821Z" fill="#FFC327"/>
</g>
<defs>
<clipPath id="clip0_302_8814">
<rect width="60" height="60" fill="white"/>
</clipPath>
</defs>
</svg>
