<svg width="60" height="59" viewBox="0 0 60 59" fill="none" xmlns="http://www.w3.org/2000/svg">
<path d="M4.39011 48.7961H6.34133V46.8449H4.39011C3.31231 46.8449 2.4389 45.9714 2.4389 44.8936V5.86926C2.4389 4.79145 3.31231 3.91804 4.39011 3.91804H47.3169C48.3947 3.91804 49.2682 4.79145 49.2682 5.86926V7.82047H51.2194V5.86926C51.2194 3.71413 49.472 1.96681 47.3169 1.96681H4.39011C2.23499 1.96681 0.487671 3.71413 0.487671 5.86926V44.8936C0.487671 47.0488 2.23499 48.7961 4.39011 48.7961Z" fill="#FAB400"/>
<path d="M4.39026 5.8692H6.34147V7.82042H4.39026V5.8692Z" fill="#FAB400"/>
<path d="M8.29242 5.8692H10.2436V7.82042H8.29242V5.8692Z" fill="#FAB400"/>
<path d="M12.195 5.8692H14.1462V7.82042H12.195V5.8692Z" fill="#FAB400"/>
<path d="M8.29242 52.6986C8.29242 54.8538 10.0397 56.6011 12.1949 56.6011H55.1217C57.2769 56.6011 59.0242 54.8538 59.0242 52.6986V13.6742C59.0242 11.5191 57.2769 9.77176 55.1217 9.77176H12.1949C10.0397 9.77176 8.29242 11.5191 8.29242 13.6742V52.6986ZM10.2436 13.6742C10.2436 12.5964 11.1171 11.723 12.1949 11.723H55.1217C56.1995 11.723 57.0729 12.5964 57.0729 13.6742V52.6986C57.0729 53.7764 56.1995 54.6498 55.1217 54.6498H12.1949C11.1171 54.6498 10.2436 53.7764 10.2436 52.6986V13.6742Z" fill="#FAB400"/>
<path d="M12.195 13.6741H14.1462V15.6253H12.195V13.6741Z" fill="#FAB400"/>
<path d="M16.0975 13.6741H18.0487V15.6253H16.0975V13.6741Z" fill="#FAB400"/>
<path d="M19.9998 13.6741H21.9509V15.6253H19.9998V13.6741Z" fill="#FAB400"/>
<path d="M12.195 17.5765H55.1219V19.5278H12.195V17.5765Z" fill="#FAB400"/>
<path d="M12.195 22.4546H19.9999V24.4058H12.195V22.4546Z" fill="#FAB400"/>
<path d="M12.195 26.357H18.0487V28.3083H12.195V26.357Z" fill="#FAB400"/>
<path d="M33.6584 30.2596C29.8864 30.2596 26.8292 33.3168 26.8292 37.0888C26.8292 40.8607 29.8864 43.9181 33.6584 43.9181C37.4303 43.9181 40.4877 40.8607 40.4877 37.0888C40.4833 33.319 37.4282 30.264 33.6584 30.2596ZM33.6584 41.9669C30.9645 41.9669 28.7804 39.7828 28.7804 37.0888C28.7804 34.3949 30.9645 32.2108 33.6584 32.2108C36.3524 32.2108 38.5365 34.3949 38.5365 37.0888C38.533 39.7815 36.3511 41.9634 33.6584 41.9669Z" fill="#FAB400"/>
<path d="M49.2682 34.162C49.2682 33.623 48.8315 33.1864 48.2925 33.1864H45.714C45.5075 32.5455 45.2498 31.9218 44.9423 31.3229L46.7657 29.5008C47.1462 29.1196 47.1462 28.5022 46.7657 28.121L42.6262 23.9816C42.2449 23.6011 41.6277 23.6011 41.2465 23.9816L39.4242 25.804C38.8245 25.4977 38.2014 25.2401 37.5609 25.0332V22.4546C37.5609 21.9157 37.1243 21.4791 36.5852 21.4791H30.7315C30.1926 21.4791 29.756 21.9157 29.756 22.4546V25.0332C29.1155 25.2401 28.4924 25.4977 27.8925 25.804L26.0704 23.9816C25.6892 23.6011 25.0718 23.6011 24.6906 23.9816L20.5511 28.121C20.1707 28.5022 20.1707 29.1196 20.5511 29.5008L22.3735 31.3229C22.292 31.4827 22.2136 31.643 22.1394 31.805C21.9335 32.2547 21.7545 32.7157 21.6028 33.1864H19.0242C18.4852 33.1864 18.0487 33.623 18.0487 34.162V40.0156C18.0487 40.5547 18.4852 40.9913 19.0242 40.9913H21.6028C21.8094 41.6322 22.067 42.256 22.3746 42.8546L20.5511 44.6769C20.1707 45.0581 20.1707 45.6754 20.5511 46.0566L24.6906 50.1962C25.0718 50.5766 25.6892 50.5766 26.0704 50.1962L27.8925 48.3738C28.4924 48.6801 29.1155 48.9376 29.756 49.1444V51.7229C29.756 52.2621 30.1926 52.6986 30.7315 52.6986H36.5852C37.1243 52.6986 37.5609 52.2621 37.5609 51.7229V49.1444C38.2014 48.9376 38.8245 48.6801 39.4242 48.3738L41.2465 50.1962C41.6277 50.5766 42.2449 50.5766 42.6262 50.1962L46.7657 46.0566C47.1462 45.6754 47.1462 45.0581 46.7657 44.6769L44.9423 42.8546C45.2498 42.256 45.5075 41.6322 45.714 40.9913H48.2925C48.8315 40.9913 49.2682 40.5547 49.2682 40.0156V34.162ZM47.317 39.0401H44.9812C44.5365 39.0401 44.1481 39.3413 44.0369 39.7718C43.7877 40.74 43.4035 41.6693 42.8954 42.5308C42.6693 42.9138 42.7315 43.4015 43.0457 43.7162L44.6951 45.3666L41.9362 48.1269L40.2857 46.4761C39.9708 46.1615 39.483 46.0996 39.0999 46.3259C38.2384 46.834 37.3096 47.2184 36.3414 47.4673C35.9109 47.5785 35.6097 47.9669 35.6097 48.4118V50.7474H31.7072V48.4118C31.7072 47.9669 31.406 47.5785 30.9755 47.4673C30.0071 47.2184 29.0785 46.834 28.217 46.3259C27.8338 46.0996 27.3459 46.1615 27.0311 46.4761L25.3806 48.1269L22.6216 45.3666L24.2711 43.7162C24.5852 43.4015 24.6474 42.9138 24.4213 42.5308C23.9133 41.6693 23.5292 40.74 23.2798 39.7718C23.1686 39.3413 22.7804 39.0401 22.3355 39.0401H19.9999V35.1376H22.3355C22.7804 35.1376 23.1686 34.8364 23.2798 34.4059C23.4374 33.7917 23.6499 33.1938 23.9142 32.6179C24.0667 32.284 24.236 31.9583 24.4213 31.6422C24.6467 31.2591 24.585 30.772 24.2711 30.4576L22.6216 28.8072L25.3806 26.0469L27.0311 27.6981C27.3459 28.0127 27.8338 28.0742 28.217 27.8476C29.0785 27.3401 30.0071 26.9552 30.9755 26.7062C31.406 26.5952 31.7072 26.2064 31.7072 25.7622V23.4303H35.6097V25.7659C35.6097 26.2108 35.9109 26.599 36.3414 26.7102C37.3096 26.9593 38.2384 27.3438 39.0999 27.8517C39.483 28.0781 39.9708 28.0162 40.2857 27.7016L41.9362 26.0508L44.6951 28.811L43.0457 30.4616C42.7315 30.7762 42.6693 31.264 42.8954 31.6469C43.4035 32.5083 43.7877 33.4376 44.0369 34.4059C44.1481 34.8364 44.5365 35.1376 44.9812 35.1376H47.317V39.0401Z" fill="#FAB400"/>
<path d="M49.2681 50.7474H55.1217V52.6986H49.2681V50.7474Z" fill="#FAB400"/>
</svg>
