<svg width="60" height="60" viewBox="0 0 60 60" fill="none" xmlns="http://www.w3.org/2000/svg">
<g clip-path="url(#clip0_302_8838)">
<path d="M58.3071 19.8656C57.0037 19.1912 55.0395 19.4027 53.8068 21.4613C53.8034 21.4671 53.7997 21.473 53.7964 21.479L49.2426 29.3939C47.9272 28.7171 46.2682 29.0507 45.3247 30.2616C44.9988 30.6801 43.9218 32.1137 42.7818 33.6315C42.1569 34.4634 41.5322 35.2952 41.0498 35.9346C40.6601 36.4512 40.7628 37.1859 41.2794 37.5755C41.7963 37.9655 42.5307 37.8624 42.9204 37.3458C43.4037 36.7053 44.0295 35.8722 44.6556 35.0388C45.7393 33.5961 46.86 32.1041 47.1734 31.7019C47.4408 31.3586 47.9541 31.292 48.2945 31.5569C48.5474 31.7534 48.5339 32.2347 48.2544 32.9873C47.2599 35.6658 46.0242 38.3424 44.8639 40.331C44.5378 40.8899 44.7265 41.6073 45.2856 41.9334C45.8446 42.2595 46.5621 42.0707 46.888 41.5118C48.1131 39.4119 49.4118 36.6023 50.4513 33.8028C50.8118 32.8317 50.8773 32.0543 50.7721 31.4345L55.822 22.6571C56.2303 21.9804 56.7693 21.7082 57.2302 21.9467C57.5469 22.1105 57.8151 22.5317 57.5311 23.1794C57.1893 23.9346 56.4534 25.8038 55.5224 28.1687C54.29 31.2984 52.7566 35.1938 51.4605 38.2247C49.8817 41.9174 49.2738 42.8093 46.4555 45.5657L41.9642 49.9587C41.6678 50.2487 41.5465 50.6739 41.6457 51.0765L43.2104 57.4292C43.2123 57.4368 43.2142 57.4445 43.2163 57.4523C43.242 57.5481 43.1871 57.6287 43.1586 57.6513H34.0004C33.1305 57.6513 32.9436 57.4032 32.7492 56.8767C30.4506 50.6516 32.8215 47.0786 35.1438 44.6612C35.5921 44.1945 35.5771 43.4529 35.1105 43.0046C34.6438 42.5564 33.9022 42.5711 33.4537 43.0379C31.7425 44.8191 30.6103 46.638 30.0018 48.5846C29.7522 47.7909 29.4159 47.0175 28.9915 46.2621C27.3988 43.4267 24.8102 41.3492 22.73 39.6798C21.5204 38.709 20.3778 37.7922 19.7342 36.966C19.4211 36.5642 18.3013 35.0733 17.2183 33.6317C16.0783 32.1138 15.0015 30.6803 14.6754 30.2618C13.7318 29.0508 12.073 28.7171 10.7575 29.3939L6.20358 21.479C6.20017 21.473 6.19666 21.4671 6.19314 21.4613C4.96044 19.4027 2.99616 19.1912 1.69269 19.8656C0.378901 20.5457 -0.512028 22.2288 0.326997 24.1302C0.328638 24.1338 0.330277 24.1376 0.331918 24.1412C0.557697 24.6389 1.0116 25.7741 1.38184 26.7074C1.62051 27.3089 2.30182 27.603 2.90301 27.3644C3.50454 27.1257 3.79875 26.4446 3.56007 25.8432C2.99088 24.4083 2.6641 23.6106 2.46891 23.1795C2.18524 22.5318 2.45332 22.1106 2.76991 21.9468C3.23119 21.7083 3.77004 21.9806 4.17825 22.6574L9.22809 31.4346C9.12288 32.0544 9.18839 32.8319 9.54902 33.803C10.5883 36.6023 11.8871 39.4119 13.1121 41.5118C13.4383 42.0707 14.1557 42.2595 14.7146 41.9334C15.2734 41.6073 15.4623 40.8897 15.1362 40.331C13.976 38.3424 12.7401 35.6657 11.7456 32.9873C11.4662 32.2347 11.4527 31.7535 11.7058 31.5569C12.0459 31.2924 12.5595 31.3587 12.8267 31.7019C13.14 32.1041 14.2608 33.5961 15.3447 35.039C16.4838 36.5555 17.5598 37.9878 17.8856 38.406C18.6975 39.4482 19.9437 40.4486 21.2632 41.5074C25.4802 44.8914 30.2598 48.7271 27.2508 56.8766C27.0563 57.4032 26.8695 57.6512 25.9996 57.6512H16.8414C16.8129 57.6287 16.758 57.548 16.7837 57.4521C16.7858 57.4445 16.7877 57.4368 16.7896 57.429L18.3543 51.0764C18.4535 50.6738 18.3324 50.2487 18.0359 49.9586L13.5445 45.5655C10.7263 42.8091 10.1182 41.9172 8.5394 38.2245C8.21496 37.466 7.85046 36.5931 7.45561 35.6303C7.21015 35.0315 6.52578 34.745 5.92707 34.9905C5.32834 35.2361 5.04199 35.9204 5.28745 36.5192C5.69226 37.5065 6.05126 38.3657 6.38472 39.1457C8.08737 43.128 8.86137 44.2629 11.906 47.2407L15.9189 51.1658L14.5166 56.8587C14.3188 57.6138 14.4845 58.4336 14.961 59.0549C15.4191 59.6519 16.0987 59.9945 16.8253 59.9945H25.9995C27.7476 59.9945 28.8759 59.2401 29.4489 57.6881C29.6657 57.1011 29.8489 56.5251 30.001 55.9589C30.1521 56.5275 30.3353 57.104 30.551 57.6881C31.1238 59.2401 32.2522 59.9945 34.0002 59.9945H43.1743C43.9011 59.9945 44.5806 59.6519 45.0388 59.0549C45.5152 58.4339 45.681 57.6141 45.4833 56.8592L44.081 51.1658L48.0938 47.2407C51.1383 44.2629 51.9125 43.128 53.6151 39.1458C54.9243 36.0836 56.4648 32.1708 57.7026 29.0268C58.5876 26.7791 59.3518 24.8376 59.6679 24.1407C59.6695 24.1371 59.671 24.1335 59.6727 24.1299C60.5121 22.2288 59.6211 20.5457 58.3071 19.8656Z" fill="#FF6635"/>
<path d="M5.57878 31.1811C5.57878 30.534 5.05422 30.0095 4.40712 30.0095H4.40629C3.75919 30.0095 3.23511 30.534 3.23511 31.1811C3.23511 31.8282 3.76 32.3528 4.40712 32.3528C5.05422 32.3528 5.57878 31.8281 5.57878 31.1811Z" fill="#FF6635"/>
<path d="M38.2687 39.209C37.6218 39.209 37.0975 39.7335 37.0975 40.3806C37.0975 41.0277 37.6224 41.5523 38.2695 41.5523C38.9166 41.5523 39.4411 41.0277 39.4411 40.3806C39.4411 39.7335 38.9166 39.209 38.2695 39.209H38.2687Z" fill="#FF6635"/>
<path d="M11.2537 19.4213H21.9372C21.8463 19.9119 21.7985 20.4156 21.7985 20.928V22.9364C21.7985 23.5836 22.323 24.1081 22.9701 24.1081H37.0301C37.677 24.1081 38.2017 23.5836 38.2017 22.9364V20.928C38.2017 20.4157 38.1539 19.9121 38.063 19.4213H48.7467C49.3937 19.4213 49.9184 18.8967 49.9184 18.2496V16.2411C49.9184 13.5108 48.5838 11.0165 46.3706 9.49396C46.7124 8.80246 46.9055 8.02482 46.9055 7.20267V5.19422C46.9055 2.33315 44.5778 0.00540161 41.7167 0.00540161C38.8556 0.00540161 36.5279 2.33303 36.5279 5.19422V7.20279C36.5279 8.02623 36.7217 8.80503 37.0644 9.49737C36.3437 9.99744 35.7119 10.6065 35.189 11.2956V9.88096C35.189 7.01989 32.8613 4.69216 30.0002 4.69216C27.1389 4.69216 24.8114 7.01977 24.8114 9.88096V11.2959C24.2885 10.6066 23.6565 9.99744 22.9358 9.49737C23.2785 8.80503 23.4722 8.02635 23.4722 7.20279V5.19422C23.4722 2.33315 21.1446 0.00540161 18.2834 0.00540161C15.4223 0.00540161 13.0946 2.33303 13.0946 5.19422V7.20279C13.0946 8.02494 13.2877 8.80257 13.6295 9.49409C11.4161 11.0164 10.0818 13.5098 10.0818 16.2413V18.2496C10.082 18.8967 10.6066 19.4213 11.2537 19.4213ZM35.8584 21.7647H24.1418V20.928C24.1418 18.9457 25.184 17.0763 26.8422 16.0026C27.7178 16.6764 28.8126 17.0782 30.0002 17.0782C31.1883 17.0782 32.2838 16.6759 33.1595 16.0015C33.4125 16.1637 33.6501 16.3437 33.872 16.5384C33.9087 16.5758 33.9473 16.611 33.9885 16.6431C34.5932 17.2029 35.0687 17.8792 35.3891 18.6288C35.405 18.6753 35.4239 18.7203 35.4453 18.7641C35.7141 19.4396 35.8583 20.1711 35.8583 20.9278V21.7647H35.8584ZM47.5751 16.2413V17.0779H37.2449C36.8961 16.4232 36.4584 15.817 35.942 15.2767C36.2156 13.6585 37.1729 12.213 38.5605 11.3172C39.4356 11.9901 40.53 12.3915 41.7167 12.3915C42.905 12.3915 44.0003 11.9891 44.876 11.3147C46.5554 12.3916 47.5751 14.2269 47.5751 16.2413ZM38.8712 5.19422C38.8712 3.62525 40.1477 2.34871 41.7167 2.34871C43.2855 2.34871 44.562 3.62525 44.562 5.19422V7.20279C44.562 8.77176 43.2855 10.0483 41.7167 10.0483C40.1475 10.0483 38.8712 8.77176 38.8712 7.20279V5.19422ZM27.1547 9.88096C27.1547 8.31199 28.4312 7.03548 30.0002 7.03548C31.5692 7.03548 32.8457 8.31199 32.8457 9.88096V11.8895C32.8457 13.4585 31.5692 14.735 30.0002 14.735C28.4312 14.735 27.1547 13.4585 27.1547 11.8895V9.88096ZM15.4382 5.19422C15.4382 3.62525 16.7147 2.34871 18.2837 2.34871C19.8527 2.34871 21.1292 3.62525 21.1292 5.19422V7.20279C21.1292 8.77176 19.8527 10.0483 18.2837 10.0483C16.7147 10.0483 15.4382 8.77176 15.4382 7.20279V5.19422ZM12.4253 16.2413C12.4253 14.2262 13.4449 12.3915 15.1244 11.3148C16.0001 11.9893 17.0955 12.3916 18.2837 12.3916C19.4705 12.3916 20.5647 11.9902 21.4398 11.3173C22.8272 12.213 23.7846 13.6586 24.0584 15.2765C23.5418 15.8169 23.1039 16.423 22.755 17.0781H12.4255V16.2413H12.4253Z" fill="#FF6635"/>
</g>
<defs>
<clipPath id="clip0_302_8838">
<rect width="60" height="60" fill="white"/>
</clipPath>
</defs>
</svg>
