<svg width="60" height="59" viewBox="0 0 60 59" fill="none" xmlns="http://www.w3.org/2000/svg">
<path fill-rule="evenodd" clip-rule="evenodd" d="M6.47855 40.2146H34.2468C35.0024 40.2146 35.6188 39.6 35.6188 38.8427C35.6188 38.0854 35.0024 37.4707 34.2468 37.4707H6.47855C5.72123 37.4707 5.1066 38.0854 5.1066 38.8427C5.1066 39.6 5.72123 40.2146 6.47855 40.2146Z" fill="#5B93FF"/>
<path fill-rule="evenodd" clip-rule="evenodd" d="M44.4888 30.4244C37.6803 30.4244 32.1505 35.9543 32.1505 42.7646C32.1505 49.5732 37.6803 55.1031 44.4888 55.1031C51.2993 55.1031 56.8291 49.5732 56.8291 42.7646C56.8291 35.9543 51.2993 30.4244 44.4888 30.4244ZM44.4888 33.1683C49.7846 33.1683 54.0852 37.469 54.0852 42.7646C54.0852 48.0585 49.7846 52.3592 44.4888 52.3592C39.1949 52.3592 34.8944 48.0585 34.8944 42.7646C34.8944 37.469 39.1949 33.1683 44.4888 33.1683Z" fill="#5B93FF"/>
<path fill-rule="evenodd" clip-rule="evenodd" d="M49.5212 41.3927H39.4676C38.7102 41.3927 38.0956 42.0073 38.0956 42.7647C38.0956 43.5202 38.7102 44.1366 39.4676 44.1366H49.5212C50.2785 44.1366 50.8932 43.5202 50.8932 42.7647C50.8932 42.0073 50.2785 41.3927 49.5212 41.3927Z" fill="#5B93FF"/>
<path fill-rule="evenodd" clip-rule="evenodd" d="M43.1224 37.7378V47.7897C43.1224 48.547 43.7371 49.1616 44.4944 49.1616C45.2517 49.1616 45.8663 48.547 45.8663 47.7897V37.7378C45.8663 36.9805 45.2517 36.3658 44.4944 36.3658C43.7371 36.3658 43.1224 36.9805 43.1224 37.7378Z" fill="#5B93FF"/>
<path fill-rule="evenodd" clip-rule="evenodd" d="M25.3712 12.8872C25.3712 12.1299 24.7566 11.5152 23.9993 11.5152H6.47855C5.72123 11.5152 5.1066 12.1299 5.1066 12.8872V45.7354C5.1066 48.9127 7.68221 51.4883 10.8596 51.4883H36.3561C36.8975 51.4883 37.3895 51.1683 37.609 50.6725C37.8285 50.1768 37.7371 49.5988 37.3731 49.1963C35.8329 47.4932 34.8944 45.2378 34.8944 42.7646C34.8944 37.4688 39.1951 33.1683 44.489 33.1683C46.9639 33.1683 49.2195 34.1066 50.9225 35.6469C51.3231 36.011 51.9029 36.1024 52.3987 35.8829C52.8944 35.6634 53.2146 35.1713 53.2146 34.6298V12.8872C53.2146 12.1299 52.6 11.5152 51.8426 11.5152H34.3219C33.5646 11.5152 32.95 12.1299 32.95 12.8872V16.7744C32.95 17.5371 32.3317 18.1554 31.5688 18.1554H26.7524C25.9895 18.1554 25.3712 17.5371 25.3712 16.7744V12.8872ZM22.6273 14.2591V16.7744C22.6273 19.0518 24.4731 20.8993 26.7524 20.8993H31.5688C33.8463 20.8993 35.6939 19.0518 35.6939 16.7744V14.2591H50.4707V31.97C48.6981 30.9859 46.6585 30.4244 44.489 30.4244C37.6805 30.4244 32.1505 35.9542 32.1505 42.7646C32.1505 44.9322 32.7122 46.9719 33.6963 48.7427C33.6963 48.7444 10.8596 48.7444 10.8596 48.7444C9.19867 48.7444 7.8505 47.3963 7.8505 45.7354V14.2591H22.6273Z" fill="#5B93FF"/>
<path fill-rule="evenodd" clip-rule="evenodd" d="M34.3219 3.03842C33.5646 3.03842 32.9499 3.65306 32.9499 4.41037V12.8872C32.9499 13.6445 33.5646 14.2592 34.3219 14.2592H50.9792C53.5512 14.2592 55.6365 12.1738 55.6365 9.60184V7.69574C55.6365 5.12379 53.5512 3.03842 50.9792 3.03842H34.3219ZM25.3712 4.41037C25.3712 3.65306 24.7566 3.03842 23.9993 3.03842H7.34195C4.76817 3.03842 2.6828 5.12379 2.6828 7.69574V9.60184C2.6828 12.1738 4.76817 14.2592 7.34195 14.2592H23.9993C24.7566 14.2592 25.3712 13.6445 25.3712 12.8872V4.41037ZM35.6938 5.78232H50.9792C52.0365 5.78232 52.8926 6.63842 52.8926 7.69574V9.60184C52.8926 10.6592 52.0365 11.5153 50.9792 11.5153H35.6938V5.78232ZM22.6273 5.78232V11.5153H7.34195C6.28463 11.5153 5.4267 10.6592 5.4267 9.60184V7.69574C5.4267 6.63842 6.28463 5.78232 7.34195 5.78232H22.6273Z" fill="#5B93FF"/>
<path fill-rule="evenodd" clip-rule="evenodd" d="M23.9991 3.03842C23.24 3.03842 22.6272 3.65306 22.6272 4.41037V16.7836C22.6272 17.8756 23.0608 18.9219 23.8327 19.6939C24.6047 20.4658 25.651 20.8995 26.743 20.8995H31.5778C32.6698 20.8995 33.7162 20.4658 34.4881 19.6939C35.2601 18.9219 35.6937 17.8756 35.6937 16.7836C35.6937 12.4262 35.6937 4.41037 35.6937 4.41037C35.6937 3.65306 35.0791 3.03842 34.3218 3.03842H23.9991ZM25.3711 5.78232H32.9498V16.7836C32.9498 17.1476 32.8052 17.497 32.5474 17.7531C32.2913 18.011 31.9418 18.1556 31.5778 18.1556H26.743C26.3791 18.1556 26.0296 18.011 25.7718 17.7531C25.5157 17.497 25.3711 17.1476 25.3711 16.7836V5.78232Z" fill="#5B93FF"/>
</svg>
