<svg width="40" height="41" viewBox="0 0 40 41" fill="none" xmlns="http://www.w3.org/2000/svg">
<g clip-path="url(#clip0_207_4960)">
<path d="M38.8278 40.0073H1.17187C0.524683 40.0073 0 39.4826 0 38.8354C0 38.1883 0.524683 37.6636 1.17187 37.6636H38.8278C39.475 37.6636 39.9997 38.1883 39.9997 38.8354C39.9997 39.4826 39.475 40.0073 38.8278 40.0073Z" fill="#5B93FF"/>
<path d="M8.2812 40.0074H3.59374C2.94656 40.0074 2.42188 39.4827 2.42188 38.8355V30.2418C2.42188 29.1649 3.29804 28.2887 4.37498 28.2887H7.49996C8.5769 28.2887 9.45307 29.1649 9.45307 30.2418V38.8355C9.45307 39.4827 8.92839 40.0074 8.2812 40.0074ZM4.76561 37.6636H7.10934V30.6324H4.76561V37.6636ZM7.49996 30.6324H7.50074H7.49996Z" fill="#5B93FF"/>
<path d="M17.6562 40.0073H12.9687C12.3216 40.0073 11.7969 39.4826 11.7969 38.8355V27.4293C11.7969 26.3524 12.673 25.4762 13.75 25.4762H16.875C17.9519 25.4762 18.8281 26.3524 18.8281 27.4293V38.8355C18.8281 39.4826 18.3034 40.0073 17.6562 40.0073ZM14.1406 37.6636H16.4843V27.8199H14.1406V37.6636ZM16.875 27.8199H16.8757H16.875Z" fill="#5B93FF"/>
<path d="M27.031 40.0073H22.3435C21.6963 40.0073 21.1716 39.4826 21.1716 38.8354V23.1324C21.1716 22.0555 22.0478 21.1793 23.1247 21.1793H26.2497C27.3267 21.1793 28.2028 22.0555 28.2028 23.1324V38.8354C28.2028 39.4826 27.6781 40.0073 27.031 40.0073ZM23.5154 37.6636H25.8591V23.5231H23.5154V37.6636ZM26.2497 23.5231H26.2505H26.2497Z" fill="#5B93FF"/>
<path d="M36.406 40.0074H31.7185C31.0713 40.0074 30.5466 39.4827 30.5466 38.8355V15.3201C30.5466 14.2431 31.4228 13.3669 32.4997 13.3669H35.6247C36.7017 13.3669 37.5778 14.2431 37.5778 15.3201V38.8355C37.5778 39.4827 37.0531 40.0074 36.406 40.0074ZM32.8904 37.6636H35.2341V15.7107H32.8904V37.6636ZM35.6247 15.7107H35.6255H35.6247Z" fill="#5B93FF"/>
<path d="M1.17187 25.1874C0.524683 25.1874 0 24.6627 0 24.0156C0 23.3684 0.524683 22.8437 1.17187 22.8437C8.06291 22.8437 15.5658 20.3343 22.2983 15.7779C28.4921 11.5861 33.4276 6.09085 35.8391 0.701126C36.1035 0.110349 36.7967 -0.154337 37.3874 0.110114C37.9781 0.374409 38.2427 1.06761 37.9784 1.65838C35.3936 7.43545 30.1572 13.2893 23.612 17.7189C16.4957 22.535 8.52626 25.1874 1.17187 25.1874Z" fill="#5B93FF"/>
<path d="M38.8272 9.5134C38.3097 9.5134 37.8363 9.16809 37.696 8.6445L36.0804 2.61478L30.0506 4.23047C29.4253 4.39812 28.7829 4.02703 28.6154 3.40188C28.4479 2.77673 28.8189 2.13416 29.444 1.96666L36.6057 0.047689C37.2311 -0.119888 37.8734 0.251203 38.0409 0.876276L39.9599 8.03794C40.1274 8.66309 39.7564 9.30566 39.1313 9.47316C39.0296 9.50035 38.9276 9.5134 38.8272 9.5134Z" fill="#5B93FF"/>
</g>
<defs>
<clipPath id="clip0_207_4960">
<rect width="40" height="40" fill="white" transform="translate(0 0.00732422)"/>
</clipPath>
</defs>
</svg>
