<svg width="16" height="17" viewBox="0 0 16 17" fill="none" xmlns="http://www.w3.org/2000/svg">
<path d="M13.4634 13.3659H2.53679C2.18163 13.3655 1.84113 13.2243 1.59001 12.9731C1.33888 12.722 1.19764 12.3814 1.19727 12.0263V5.27812C1.19764 4.92296 1.33888 4.58246 1.59001 4.33131C1.84113 4.08016 2.18163 3.93888 2.53679 3.93848H13.4634C13.8185 3.93888 14.159 4.08016 14.4102 4.33131C14.6613 4.58246 14.8025 4.92296 14.8029 5.27812V12.0263C14.8025 12.3814 14.6613 12.722 14.4102 12.9731C14.159 13.2243 13.8185 13.3655 13.4634 13.3659V13.3659ZM2.53679 4.45048C2.31736 4.45071 2.107 4.53799 1.95186 4.69316C1.79672 4.84833 1.70947 5.0587 1.70927 5.27812V12.0263C1.70947 12.2457 1.79672 12.4561 1.95186 12.6113C2.107 12.7664 2.31736 12.8537 2.53679 12.8539H13.4634C13.6828 12.8537 13.8932 12.7664 14.0483 12.6113C14.2034 12.4561 14.2907 12.2457 14.2909 12.0263V5.27812C14.2907 5.0587 14.2034 4.84833 14.0483 4.69316C13.8932 4.53799 13.6828 4.45071 13.4634 4.45048H2.53679Z" fill="#FBFBFB"/>
<path d="M8.00021 10.1588C7.9378 10.1588 7.87753 10.1361 7.83073 10.0948L1.66113 4.64865L1.99995 4.26465L8.00021 9.5618L14.0007 4.26529L14.3395 4.64929L8.16993 10.0954C8.12301 10.1366 8.06263 10.1591 8.00021 10.1588V10.1588Z" fill="#FBFBFB"/>
<path d="M1.52173 12.5615L5.6664 7.83911L6.05143 8.17703L1.90675 12.8994L1.52173 12.5615Z" fill="#FBFBFB"/>
<path d="M9.96167 8.17188L10.3467 7.83396L14.4915 12.5565L14.1064 12.8944L9.96167 8.17188Z" fill="#FBFBFB"/>
</svg>
