<svg width="60" height="60" viewBox="0 0 60 60" fill="none" xmlns="http://www.w3.org/2000/svg">
<path d="M50.4877 48.4744H9.51295C8.1811 48.4729 6.90422 47.943 5.96252 47.001C5.02078 46.0594 4.49113 44.7825 4.48975 43.4505V18.145C4.49113 16.8132 5.02078 15.5363 5.96252 14.5945C6.90422 13.6527 8.1811 13.1229 9.51295 13.1213H50.4877C51.8194 13.1229 53.0962 13.6527 54.0382 14.5945C54.9799 15.5363 55.5094 16.8132 55.5109 18.145V43.4505C55.5094 44.7825 54.9799 46.0594 54.0382 47.001C53.0962 47.943 51.8194 48.4729 50.4877 48.4744ZM9.51295 15.0413C8.69008 15.0422 7.90123 15.3695 7.31946 15.9514C6.73768 16.5333 6.4105 17.3222 6.40975 18.145V43.4505C6.4105 44.2736 6.73768 45.0623 7.31946 45.6443C7.90123 46.2263 8.69008 46.5533 9.51295 46.5544H50.4877C51.3105 46.5533 52.0995 46.2263 52.6811 45.6443C53.2627 45.0623 53.5901 44.2736 53.5909 43.4505V18.145C53.5901 17.3222 53.2627 16.5333 52.6811 15.9514C52.0995 15.3695 51.3105 15.0422 50.4877 15.0413H9.51295Z" fill="#0F0F0F"/>
<path d="M30.0003 36.4475C29.7663 36.4477 29.5403 36.3623 29.3648 36.2075L6.22876 15.7845L7.49933 14.3445L30.0003 34.2088L52.5022 14.3469L53.7727 15.7869L30.6368 36.2099C30.4608 36.3643 30.2343 36.4489 30.0003 36.4475Z" fill="#0F0F0F"/>
<path d="M5.70648 45.4579L21.249 27.7487L22.6929 29.0159L7.15031 46.725L5.70648 45.4579Z" fill="#0F0F0F"/>
<path d="M37.3563 28.9966L38.8001 27.7294L54.3431 45.4387L52.899 46.7059L37.3563 28.9966Z" fill="#0F0F0F"/>
</svg>
