<svg width="60" height="60" viewBox="0 0 60 60" fill="none" xmlns="http://www.w3.org/2000/svg">
<path d="M36.9349 16.1337L33.3372 16.128C29.295 16.128 26.6829 18.8079 26.6829 22.956V26.1042H23.0653C22.7527 26.1042 22.4997 26.3577 22.4997 26.6703V31.2317C22.4997 31.5443 22.753 31.7974 23.0653 31.7974H26.6829V43.3072C26.6829 43.6198 26.9359 43.8731 27.2485 43.8731H31.9684C32.281 43.8731 32.5341 43.6195 32.5341 43.3072V31.7974H36.7638C37.0764 31.7974 37.3296 31.5443 37.3296 31.2317L37.3312 26.6703C37.3312 26.5201 37.2715 26.3765 37.1656 26.2703C37.0597 26.1641 36.9154 26.1042 36.7653 26.1042H32.5341V23.4354C32.5341 22.1528 32.8398 21.5016 34.5108 21.5016L36.9345 21.5007C37.2468 21.5007 37.4998 21.2472 37.4998 20.9349V16.6995C37.4998 16.3874 37.2471 16.1343 36.9349 16.1337Z" fill="#0F0F0F"/>
</svg>
