<svg width="16" height="17" viewBox="0 0 16 17" fill="none" xmlns="http://www.w3.org/2000/svg">
<g clip-path="url(#clip0_207_5583)">
<path d="M8.00007 0.439453C4.74097 0.439453 2.0896 3.09082 2.0896 6.34993C2.0896 7.42285 2.57078 8.57678 2.59095 8.62546C2.74636 8.99434 3.05301 9.56731 3.27413 9.90316L7.32663 16.0435C7.49247 16.2952 7.73793 16.4395 8.00007 16.4395C8.26222 16.4395 8.50768 16.2952 8.67352 16.0438L12.7264 9.90316C12.9478 9.56731 13.2541 8.99434 13.4095 8.62546C13.4297 8.57713 13.9105 7.4232 13.9105 6.34993C13.9105 3.09082 11.2592 0.439453 8.00007 0.439453ZM12.7684 8.35566C12.6297 8.6863 12.3443 9.21929 12.1457 9.52037L8.0929 15.661C8.01294 15.7823 7.98756 15.7823 7.90759 15.661L3.85475 9.52037C3.65622 9.21929 3.37078 8.68595 3.23206 8.35532C3.22615 8.34106 2.78495 7.27891 2.78495 6.34993C2.78495 3.47431 5.12445 1.1348 8.00007 1.1348C10.8757 1.1348 13.2152 3.47431 13.2152 6.34993C13.2152 7.2803 12.773 8.34523 12.7684 8.35566Z" fill="#FBFBFB"/>
<path d="M8.00017 3.22168C6.27466 3.22168 4.87109 4.62559 4.87109 6.35075C4.87109 8.07592 6.27466 9.47983 8.00017 9.47983C9.72568 9.47983 11.1292 8.07592 11.1292 6.35075C11.1292 4.62559 9.72568 3.22168 8.00017 3.22168ZM8.00017 8.78448C6.65849 8.78448 5.56644 7.69278 5.56644 6.35075C5.56644 5.00873 6.65849 3.91703 8.00017 3.91703C9.34185 3.91703 10.4339 5.00873 10.4339 6.35075C10.4339 7.69278 9.34185 8.78448 8.00017 8.78448Z" fill="#FBFBFB"/>
</g>
<defs>
<clipPath id="clip0_207_5583">
<rect width="16" height="16" fill="white" transform="translate(0 0.439453)"/>
</clipPath>
</defs>
</svg>
