<svg width="60" height="60" viewBox="0 0 60 60" fill="none" xmlns="http://www.w3.org/2000/svg">
<g clip-path="url(#clip0_302_8879)">
<path d="M37.3435 0C24.8516 0 14.6888 10.1351 14.6888 22.5929C14.6888 35.0506 24.8516 45.1857 37.3435 45.1857C49.8354 45.1857 59.9983 35.0506 59.9983 22.5929C59.9981 10.1351 49.8353 0 37.3435 0ZM37.3435 41.6674C26.7915 41.6674 18.2069 33.1107 18.2069 22.5929C18.2069 12.075 26.7915 3.51822 37.3435 3.51822C47.8955 3.51822 56.48 12.0752 56.48 22.5929C56.48 33.1105 47.8954 41.6674 37.3435 41.6674Z" fill="#5B93FF"/>
<path d="M39.1027 11.2076H35.5844V24.352H48.7573V20.8337H39.1027V11.2076Z" fill="#5B93FF"/>
<path d="M1.6875 42.5127L11.0956 33.1313L13.5794 35.6222L4.17137 45.0036L1.6875 42.5127Z" fill="#5B93FF"/>
<path d="M0.000366211 30.8891L8.6613 22.2527L11.1451 24.7436L2.48423 33.38L0.000366211 30.8891Z" fill="#5B93FF"/>
<path d="M26.6889 57.5024L35.3499 48.8659L37.8338 51.3568L29.1728 59.9933L26.6889 57.5024Z" fill="#5B93FF"/>
<path d="M4.2052 53.3074L15.2 42.3437L17.6839 44.8346L6.68907 55.7983L4.2052 53.3074Z" fill="#5B93FF"/>
<path d="M15.0316 55.8193L24.4397 46.4378L26.9236 48.9287L17.5156 58.3102L15.0316 55.8193Z" fill="#5B93FF"/>
</g>
<defs>
<clipPath id="clip0_302_8879">
<rect width="60" height="60" fill="white"/>
</clipPath>
</defs>
</svg>
