<svg width="60" height="60" viewBox="0 0 60 60" fill="none" xmlns="http://www.w3.org/2000/svg">
<g clip-path="url(#clip0_302_8915)">
<path d="M30.5917 60C30.3931 60 30.1944 60 29.9944 59.9992C25.2909 60.0104 20.9453 59.8909 16.7192 59.6339C12.8445 59.3981 9.30773 58.0592 6.4904 55.7621C3.772 53.5456 1.91581 50.5485 0.973254 46.8552C0.152907 43.64 0.109413 40.4837 0.0677592 37.4309C0.0375459 35.2405 0.0064 32.6448 0 30.0053C0.0064 27.3549 0.0375459 24.7595 0.0677592 22.5691C0.109413 19.5165 0.152907 16.3603 0.973254 13.1445C1.91581 9.4512 3.772 6.4544 6.4904 4.23787C9.30773 1.94075 12.8445 0.601786 16.7195 0.366052C20.9459 0.109226 25.2925 -0.0106932 30.0056 0.000746772C34.7104 -0.00933323 39.0547 0.109226 43.2808 0.366052C47.1555 0.601786 50.6923 1.94075 53.5096 4.23787C56.2283 6.4544 58.0843 9.4512 59.0267 13.1445C59.8472 16.36 59.8907 19.5165 59.9323 22.5691C59.9624 24.7595 59.9941 27.3549 60 29.9944V30.0053C59.9941 32.6448 59.9624 35.2405 59.9323 37.4309C59.8907 40.4832 59.8475 43.6395 59.0267 46.8552C58.0843 50.5485 56.2283 53.5456 53.5096 55.7621C50.6923 58.0592 47.1555 59.3981 43.2808 59.6339C39.2336 59.88 35.076 60 30.5917 60ZM29.9944 55.3115C34.6211 55.3227 38.8693 55.2059 42.9963 54.9549C45.9259 54.7768 48.4661 53.8261 50.5472 52.1291C52.4709 50.5605 53.7957 48.396 54.4845 45.6963C55.1677 43.0197 55.2069 40.1459 55.2451 37.3667C55.2747 35.1909 55.3059 32.6139 55.3123 30C55.3059 27.3856 55.2747 24.8088 55.2451 22.6331C55.2069 19.8541 55.1677 16.9803 54.4845 14.3032C53.7957 11.6032 52.4709 9.43893 50.5472 7.87013C48.4661 6.1736 45.9259 5.22293 42.9963 5.0448C38.8693 4.7936 34.6211 4.6776 30.0053 4.68773C25.3795 4.6768 21.1307 4.7936 17.0037 5.0448C14.0741 5.22293 11.5339 6.1736 9.4528 7.87013C7.52907 9.43893 6.20427 11.6032 5.51547 14.3032C4.83227 16.9803 4.79307 19.8536 4.75493 22.6331C4.72533 24.8107 4.69413 27.3893 4.68773 30.0053C4.69413 32.6101 4.72533 35.1891 4.75493 37.3667C4.79307 40.1459 4.83227 43.0197 5.51547 45.6963C6.20427 48.396 7.52907 50.5605 9.4528 52.1291C11.5339 53.8256 14.0741 54.7765 17.0037 54.9544C21.1307 55.2059 25.3803 55.3229 29.9944 55.3115ZM29.8827 44.6483C21.8056 44.6483 15.2336 38.0771 15.2336 30C15.2336 21.9227 21.8056 15.3515 29.8827 15.3515C37.96 15.3515 44.5315 21.9227 44.5315 30C44.5315 38.0771 37.96 44.6483 29.8827 44.6483ZM29.8827 20.0389C24.3901 20.0389 19.9213 24.5077 19.9213 30C19.9213 35.4923 24.3901 39.9608 29.8827 39.9608C35.3755 39.9608 39.844 35.4923 39.844 30C39.844 24.5077 35.3755 20.0389 29.8827 20.0389ZM46.1723 10.664C44.2309 10.664 42.6565 12.2376 42.6565 14.1795C42.6565 16.1213 44.2309 17.6952 46.1723 17.6952C48.1141 17.6952 49.688 16.1213 49.688 14.1795C49.688 12.2376 48.1141 10.664 46.1723 10.664Z" fill="#0F0F0F"/>
</g>
<defs>
<clipPath id="clip0_302_8915">
<rect width="60" height="60" fill="white"/>
</clipPath>
</defs>
</svg>
