<svg width="40" height="41" viewBox="0 0 40 41" fill="none" xmlns="http://www.w3.org/2000/svg">
<path d="M36.3873 1.73421C36.2496 1.64927 36.091 1.60406 35.9294 1.60406H9.81965C7.57495 1.60406 5.74877 3.41243 5.74877 5.62872L5.59533 28.1131H0.876785C0.392498 28.1131 0 28.5056 0 28.9899V33.0406C0.00308244 36.0151 2.41356 38.4256 5.38812 38.429C5.4484 38.429 5.50902 38.4229 5.56827 38.4106H27.3526C27.4824 38.4198 27.6133 38.426 27.7451 38.426C30.7659 38.4205 33.212 35.971 33.213 32.9502V19.8066H39.1231C39.6074 19.8066 39.9999 19.4141 39.9999 18.9298V5.91436C39.9893 3.82137 38.4566 2.04759 36.3873 1.73421ZM1.75357 33.0409V29.867H22.2772V32.9505C22.2762 34.3243 22.793 35.6477 23.7249 36.657H5.26825C5.22681 36.6573 5.18571 36.6604 5.14495 36.6666C3.2376 36.5368 1.75597 34.9527 1.75357 33.0409ZM31.4595 5.91436V32.9502C31.4578 33.9304 31.0683 34.8695 30.3762 35.5631C29.7134 36.2429 28.813 36.6399 27.8643 36.67C27.817 36.6618 27.7691 36.6577 27.7208 36.6573H27.4126C25.5028 36.4693 24.0434 34.8698 24.0308 32.9509V28.9899C24.0308 28.506 23.6383 28.1131 23.154 28.1131H7.3489L7.50234 5.63488C7.51501 4.36697 8.5514 3.34805 9.81965 3.35764H32.3304C31.7657 4.09023 31.4591 4.98928 31.4595 5.91436ZM38.2463 18.053H33.213V5.91436C33.236 4.54061 34.3559 3.43949 35.7297 3.43949C37.1034 3.43949 38.2234 4.54061 38.2463 5.91436V18.053Z" fill="#26C0E2"/>
<path d="M11.2567 11.1028H19.5608C20.0451 11.1028 20.4376 10.7103 20.4376 10.226C20.4376 9.74174 20.0451 9.34924 19.5608 9.34924H11.2567C10.7724 9.34924 10.3799 9.74174 10.3799 10.226C10.3799 10.7103 10.7724 11.1028 11.2567 11.1028Z" fill="#26C0E2"/>
<path d="M26.747 15.6183H11.2567C10.7724 15.6183 10.3799 16.0108 10.3799 16.4951C10.3799 16.979 10.7724 17.3719 11.2567 17.3719H26.747C27.2313 17.3719 27.6238 16.979 27.6238 16.4951C27.6238 16.0108 27.2313 15.6183 26.747 15.6183Z" fill="#26C0E2"/>
<path d="M26.747 21.887H11.2567C10.7724 21.887 10.3799 22.2798 10.3799 22.7637C10.3799 23.248 10.7724 23.6405 11.2567 23.6405H26.747C27.2313 23.6405 27.6238 23.248 27.6238 22.7637C27.6238 22.2798 27.2313 21.887 26.747 21.887Z" fill="#26C0E2"/>
</svg>
