<svg width="60" height="60" viewBox="0 0 60 60" fill="none" xmlns="http://www.w3.org/2000/svg">
<path d="M43.125 43.1245V33.5106C43.125 28.7856 42.1078 25.1763 36.5953 25.1763C33.9375 25.1763 32.1657 26.62 31.4437 27.9981H31.3782V25.6029H26.161V43.1245H31.6078V34.4293C31.6078 32.1324 32.0344 29.934 34.8562 29.934C37.6453 29.934 37.678 32.5261 37.678 34.5606V43.0918H43.125V43.1245Z" fill="#0F0F0F"/>
<path d="M17.3016 25.604H22.7484V43.1258H17.3016V25.604Z" fill="#0F0F0F"/>
<path d="M20.025 16.875C18.2859 16.875 16.875 18.2859 16.875 20.025C16.875 21.7641 18.2859 23.2077 20.025 23.2077C21.7641 23.2077 23.175 21.7641 23.175 20.025C23.175 18.2859 21.7641 16.875 20.025 16.875Z" fill="#0F0F0F"/>
</svg>
