<svg width="60" height="60" viewBox="0 0 60 60" fill="none" xmlns="http://www.w3.org/2000/svg">
<path d="M4 50.0156H6V48.0156H4C2.89525 48.0156 2 47.1204 2 46.0156V6.01562C2 4.91087 2.89525 4.01563 4 4.01563H48C49.1048 4.01563 50 4.91087 50 6.01562V8.01562H52V6.01562C52 3.80663 50.209 2.01562 48 2.01562H4C1.791 2.01562 0 3.80663 0 6.01562V46.0156C0 48.2246 1.791 50.0156 4 50.0156Z" fill="#5B93FF"/>
<path d="M4.00012 6.01611H6.00012V8.01615H4.00012V6.01611Z" fill="#5B93FF"/>
<path d="M7.99988 6.01611H9.9999V8.01615H7.99988V6.01611Z" fill="#5B93FF"/>
<path d="M12 6.01611H14V8.01615H12V6.01611Z" fill="#5B93FF"/>
<path d="M7.99988 54.0152C7.99988 56.2241 9.79088 58.0151 11.9999 58.0151H55.9999C58.2089 58.0151 59.9999 56.2241 59.9999 54.0152V14.0151C59.9999 11.8061 58.2089 10.0151 55.9999 10.0151H11.9999C9.79088 10.0151 7.99988 11.8061 7.99988 14.0151V54.0152ZM9.9999 14.0151C9.9999 12.9104 10.8951 12.0152 11.9999 12.0152H55.9999C57.1046 12.0152 57.9999 12.9104 57.9999 14.0151V54.0152C57.9999 55.1199 57.1046 56.0151 55.9999 56.0151H11.9999C10.8951 56.0151 9.9999 55.1199 9.9999 54.0152V14.0151Z" fill="#5B93FF"/>
<path d="M12 14.0156H14V16.0157H12V14.0156Z" fill="#5B93FF"/>
<path d="M16.0001 14.0156H18V16.0157H16.0001V14.0156Z" fill="#5B93FF"/>
<path d="M19.9999 14.0156H22V16.0157H19.9999V14.0156Z" fill="#5B93FF"/>
<path d="M12 18.0161H56V20.0161H12V18.0161Z" fill="#5B93FF"/>
<path d="M12 23.0156H20V25.0156H12V23.0156Z" fill="#5B93FF"/>
<path d="M12 27.0161H18V29.0161H12V27.0161Z" fill="#5B93FF"/>
<path d="M34 31.0151C30.1337 31.0151 27 34.1489 27 38.0151C27 41.8814 30.1337 45.0152 34 45.0152C37.8662 45.0152 41 41.8814 41 38.0151C40.9955 34.1511 37.864 31.0196 34 31.0151ZM34 43.0151C31.2388 43.0151 29 40.7764 29 38.0151C29 35.2539 31.2388 33.0152 34 33.0152C36.7613 33.0152 39 35.2539 39 38.0151C38.9965 40.7751 36.76 43.0116 34 43.0151Z" fill="#5B93FF"/>
<path d="M50 35.0151C50 34.4627 49.5525 34.0151 49 34.0151H46.357C46.1452 33.3581 45.8812 32.7189 45.566 32.1051L47.435 30.2374C47.825 29.8466 47.825 29.2139 47.435 28.8231L43.192 24.5801C42.8012 24.1901 42.1685 24.1901 41.7778 24.5801L39.91 26.4482C39.2953 26.1341 38.6565 25.8701 38 25.6581V23.0151C38 22.4627 37.5525 22.0151 37 22.0151H31C30.4475 22.0151 30 22.4627 30 23.0151V25.6581C29.3435 25.8701 28.7048 26.1341 28.09 26.4482L26.2223 24.5801C25.8315 24.1901 25.1987 24.1901 24.808 24.5801L20.565 28.8231C20.175 29.2139 20.175 29.8466 20.565 30.2374L22.433 32.1051C22.3495 32.2689 22.269 32.4332 22.193 32.5991C21.982 33.0602 21.7985 33.5327 21.643 34.0151H19C18.4475 34.0151 18 34.4627 18 35.0151V41.0151C18 41.5676 18.4475 42.0152 19 42.0152H21.643C21.8548 42.6722 22.1188 43.3114 22.434 43.9251L20.565 45.7929C20.175 46.1837 20.175 46.8164 20.565 47.2071L24.808 51.4502C25.1987 51.8402 25.8315 51.8402 26.2223 51.4502L28.09 49.5821C28.7048 49.8962 29.3435 50.1602 30 50.3721V53.0151C30 53.5676 30.4475 54.0152 31 54.0152H37C37.5525 54.0152 38 53.5676 38 53.0151V50.3721C38.6565 50.1602 39.2953 49.8962 39.91 49.5821L41.7778 51.4502C42.1685 51.8402 42.8012 51.8402 43.192 51.4502L47.435 47.2071C47.825 46.8164 47.825 46.1837 47.435 45.7929L45.566 43.9251C45.8812 43.3114 46.1452 42.6722 46.357 42.0152H49C49.5525 42.0152 50 41.5676 50 41.0151V35.0151ZM48 40.0151H45.606C45.15 40.0151 44.752 40.3239 44.638 40.7651C44.3825 41.7576 43.9888 42.7101 43.468 43.5932C43.2362 43.9856 43.3 44.4857 43.622 44.8082L45.3127 46.4999L42.4847 49.3292L40.793 47.6372C40.4702 47.3147 39.9703 47.2511 39.5775 47.4831C38.6945 48.0039 37.7425 48.3979 36.75 48.6531C36.3088 48.7671 36 49.1651 36 49.6211V52.0151H32V49.6211C32 49.1651 31.6912 48.7671 31.25 48.6531C30.2575 48.3979 29.3055 48.0039 28.4225 47.4831C28.0298 47.2511 27.5297 47.3147 27.207 47.6372L25.5152 49.3292L22.6873 46.4999L24.378 44.8082C24.7 44.4857 24.7637 43.9856 24.532 43.5932C24.0113 42.7101 23.6175 41.7576 23.362 40.7651C23.248 40.3239 22.85 40.0151 22.394 40.0151H20V36.0152H22.394C22.85 36.0152 23.248 35.7064 23.362 35.2652C23.5235 34.6356 23.7413 34.0226 24.0122 33.4324C24.1685 33.0902 24.342 32.7564 24.532 32.4324C24.763 32.0396 24.6998 31.5404 24.378 31.2182L22.6873 29.5264L25.5152 26.6972L27.207 28.3896C27.5297 28.7121 28.0298 28.7751 28.4225 28.5429C29.3055 28.0226 30.2575 27.6281 31.25 27.3729C31.6912 27.2591 32 26.8607 32 26.4054V24.0152H36V26.4092C36 26.8652 36.3088 27.2631 36.75 27.3771C37.7425 27.6324 38.6945 28.0264 39.5775 28.5471C39.9703 28.7792 40.4702 28.7156 40.793 28.3931L42.4847 26.7011L45.3127 29.5304L43.622 31.2221C43.3 31.5446 43.2362 32.0447 43.468 32.4371C43.9888 33.3201 44.3825 34.2726 44.638 35.2652C44.752 35.7064 45.15 36.0152 45.606 36.0152H48V40.0151Z" fill="#5B93FF"/>
<path d="M49.9999 52.0151H55.9999V54.0152H49.9999V52.0151Z" fill="#5B93FF"/>
</svg>
