<svg width="60" height="63" viewBox="0 0 60 63" fill="none" xmlns="http://www.w3.org/2000/svg">
<path d="M56.7672 29.7323L39.2673 12.2323C38.7957 11.7769 38.1642 11.5249 37.5087 11.5306C36.8532 11.5363 36.2262 11.7992 35.7627 12.2627C35.2992 12.7263 35.0364 13.3533 35.0307 14.0088C35.025 14.6643 35.277 15.2958 35.7324 15.7673L48.9648 28.9998H4.99977C4.33671 28.9998 3.70083 29.2632 3.23199 29.732C2.76315 30.201 2.49976 30.8367 2.49976 31.4997C2.49976 32.1627 2.76315 32.7987 3.23199 33.2676C3.70083 33.7365 4.33671 33.9999 4.99977 33.9999H48.9648L35.7324 47.2323C35.4936 47.463 35.3031 47.7387 35.172 48.0438C35.0409 48.3489 34.9719 48.6768 34.9692 49.0089C34.9662 49.3407 35.0295 49.6698 35.1552 49.9773C35.2809 50.2845 35.4666 50.5635 35.7012 50.7984C35.9361 51.033 36.2151 51.2187 36.5223 51.3444C36.8295 51.4701 37.1589 51.5334 37.4907 51.5304C37.8228 51.5274 38.1507 51.4587 38.4558 51.3276C38.7609 51.1965 39.0366 51.006 39.2673 50.7672L56.7672 33.2673C57.2358 32.7984 57.4992 32.1627 57.4992 31.4997C57.4992 30.837 57.2358 30.201 56.7672 29.7323Z" fill="#0F0F0F"/>
</svg>
