<svg width="60" height="60" viewBox="0 0 60 60" fill="none" xmlns="http://www.w3.org/2000/svg">
<path d="M29.9998 0C17.7782 0 7.83554 9.94264 7.83554 22.1643C7.83554 26.1877 9.63997 30.515 9.71557 30.6975C10.2984 32.0808 11.4483 34.2295 12.2775 35.4889L27.4744 58.515C28.0963 59.4589 29.0167 60 29.9998 60C30.9829 60 31.9033 59.4589 32.5252 58.5161L47.7232 35.4889C48.5539 34.2295 49.7025 32.0808 50.2852 30.6975C50.361 30.5163 52.164 26.1891 52.164 22.1643C52.164 9.94264 42.2216 0 29.9998 0ZM47.8811 29.6858C47.361 30.9257 46.2904 32.9244 45.546 34.0535L30.3479 57.081C30.0481 57.5359 29.9529 57.5359 29.653 57.081L14.4548 34.0535C13.7104 32.9244 12.64 30.9244 12.1198 29.6845C12.0976 29.631 10.4431 25.648 10.4431 22.1643C10.4431 11.3807 19.2162 2.60756 29.9998 2.60756C40.7835 2.60756 49.5566 11.3807 49.5566 22.1643C49.5566 25.6532 47.898 29.6467 47.8811 29.6858Z" fill="#0F0F0F"/>
<path d="M29.9997 10.4333C23.529 10.4333 18.2657 15.698 18.2657 22.1674C18.2657 28.6367 23.529 33.9014 29.9997 33.9014C36.4704 33.9014 41.7337 28.6367 41.7337 22.1674C41.7337 15.698 36.4704 10.4333 29.9997 10.4333ZM29.9997 31.2938C24.9684 31.2938 20.8732 27.2 20.8732 22.1674C20.8732 17.1348 24.9684 13.0409 29.9997 13.0409C35.031 13.0409 39.126 17.1348 39.126 22.1674C39.126 27.2 35.031 31.2938 29.9997 31.2938Z" fill="#0F0F0F"/>
</svg>
