<svg width="60" height="59" viewBox="0 0 60 59" fill="none" xmlns="http://www.w3.org/2000/svg">
<path d="M6.52774 4.14194C5.80935 4.14194 5.23285 4.71843 5.23285 5.43684C5.23285 6.15524 5.80935 6.73174 6.52774 6.73174C7.24614 6.73174 7.82264 6.15524 7.82264 5.43684C7.82264 4.71843 7.23727 4.14194 6.52774 4.14194Z" fill="#605BFF"/>
<path d="M11.184 4.14194C10.4656 4.14194 9.8891 4.71843 9.8891 5.43684C9.8891 6.15524 10.4656 6.73174 11.184 6.73174C11.9024 6.73174 12.4789 6.15524 12.4789 5.43684C12.4789 4.71843 11.9024 4.14194 11.184 4.14194Z" fill="#605BFF"/>
<path d="M15.8403 4.14194C15.1219 4.14194 14.5453 4.71843 14.5453 5.43684C14.5453 6.15524 15.1219 6.73174 15.8403 6.73174C16.5587 6.73174 17.1351 6.15524 17.1351 5.43684C17.1351 4.71843 16.5587 4.14194 15.8403 4.14194Z" fill="#605BFF"/>
<path d="M36.3016 20.6564C25.8537 20.6564 17.3569 29.1531 17.3569 39.601C17.3569 41.9248 17.7737 44.2041 18.6074 46.3682C18.705 46.6254 18.9534 46.7939 19.2194 46.7939H53.3746C53.6496 46.7939 53.889 46.6254 53.9866 46.3682C54.8114 44.2041 55.2371 41.9248 55.2371 39.601C55.2371 29.1531 46.7405 20.6564 36.3016 20.6564ZM52.9135 45.4635H19.6807C19.4323 44.754 19.2371 44.0267 19.0776 43.2906L20.3192 43.0689C20.6741 43.0068 20.9135 42.6609 20.8514 42.3062C20.7894 41.9513 20.4434 41.7119 20.0887 41.7739L18.847 41.9958C18.7406 41.2064 18.6696 40.4081 18.6696 39.601C18.6696 38.785 18.7406 37.9869 18.8558 37.2063L20.0975 37.428C20.133 37.4369 20.1774 37.4369 20.2128 37.4369C20.5232 37.4369 20.8071 37.2152 20.8602 36.8959C20.9224 36.5412 20.6828 36.1952 20.3281 36.1332L19.0776 35.9115C19.4234 34.315 19.9822 32.7984 20.7272 31.3882L21.8269 32.0267C21.9335 32.0889 22.0488 32.1154 22.1552 32.1154C22.3858 32.1154 22.6075 32.0001 22.7228 31.7873C22.909 31.468 22.7937 31.0689 22.4833 30.8826L21.3924 30.2529C22.2528 28.8871 23.2993 27.6543 24.4877 26.5723L25.2948 27.5301C25.4278 27.6897 25.6141 27.7695 25.8004 27.7695C25.9511 27.7695 26.102 27.7164 26.2261 27.6187C26.5011 27.3881 26.5454 26.9713 26.3059 26.6874L25.4988 25.7207C26.7582 24.7363 28.1596 23.9115 29.6585 23.2995L30.093 24.4968C30.1906 24.7629 30.4479 24.9313 30.714 24.9313C30.7849 24.9313 30.8647 24.9225 30.9357 24.8959C31.2815 24.7718 31.4501 24.3903 31.326 24.0533L30.8913 22.8561C32.3902 22.3682 33.9866 22.0933 35.6363 22.0311V23.2995C35.6363 23.6631 35.929 23.9558 36.2926 23.9558C36.6563 23.9558 36.949 23.6631 36.949 23.2995V22.0311C38.5985 22.0933 40.1862 22.3682 41.694 22.8561L41.2593 24.0533C41.1352 24.3992 41.3126 24.7718 41.6496 24.8959C41.7206 24.9225 41.8003 24.9313 41.8713 24.9313C42.1374 24.9313 42.3946 24.7629 42.4923 24.4968L42.9267 23.2995C44.4257 23.9115 45.8269 24.7363 47.0865 25.7207L46.2793 26.6874C46.0488 26.9624 46.0842 27.3793 46.3592 27.6187C46.4833 27.7251 46.6342 27.7695 46.7849 27.7695C46.9712 27.7695 47.1573 27.6897 47.2904 27.5301L48.0976 26.5723C49.286 27.6543 50.3325 28.8871 51.1928 30.2529L50.1108 30.8649C49.7915 31.0512 49.6851 31.4503 49.8714 31.7696C49.9955 31.9824 50.2172 32.0977 50.439 32.0977C50.5542 32.0977 50.6607 32.071 50.7671 32.009L51.8669 31.3704C52.6119 32.7806 53.1706 34.2972 53.5166 35.8938L52.266 36.1155C51.9112 36.1775 51.6718 36.5235 51.7339 36.8782C51.7871 37.1975 52.0709 37.4192 52.3813 37.4192C52.4168 37.4192 52.4612 37.4192 52.4966 37.4103L53.7383 37.1886C53.8447 37.978 53.9246 38.7673 53.9246 39.5833C53.9246 40.3904 53.8536 41.1885 53.7472 41.9779L52.5055 41.7562C52.1508 41.6942 51.8048 41.9336 51.7428 42.2885C51.6806 42.6432 51.9202 42.989 52.2749 43.0512L53.5166 43.2729C53.3569 44.0267 53.1619 44.754 52.9135 45.4635Z" fill="#605BFF"/>
<path d="M44.5234 29.02C44.2484 28.8603 43.9024 28.9224 43.6984 29.1619L35.9202 38.0665C35.4323 38.3592 35.0156 38.7583 34.7229 39.2639C34.2705 40.0532 34.1464 40.9667 34.3858 41.8447C34.6165 42.7228 35.184 43.4501 35.9646 43.9025C36.4967 44.2128 37.082 44.3548 37.6586 44.3548C38.8381 44.3548 39.9822 43.7428 40.6119 42.652C40.9046 42.1464 41.0377 41.5787 41.0466 41.011L44.8248 29.8004C44.9224 29.5077 44.7982 29.1796 44.5234 29.02ZM39.4678 41.9956C38.8914 42.989 37.6231 43.3348 36.6209 42.7671C36.1419 42.4923 35.8049 42.0487 35.6542 41.5077C35.5122 40.9667 35.5832 40.408 35.8582 39.929C36.133 39.4502 36.5766 39.1042 37.1176 38.9623C37.295 38.9179 37.4811 38.8914 37.6586 38.8914C38.0134 38.8914 38.3681 38.9889 38.6874 39.1663C39.1752 39.4412 39.5211 39.8936 39.6631 40.4257C39.8138 40.9579 39.7428 41.5077 39.4678 41.9956ZM40.3636 38.9091C40.0888 38.5544 39.7518 38.2528 39.3525 38.0222C38.9535 37.7915 38.5278 37.6497 38.0843 37.5965L42.5189 32.5232L40.3636 38.9091Z" fill="#605BFF"/>
<path d="M39.9201 56.3105H20.5677C20.204 56.3105 19.9113 56.6031 19.9113 56.9666C19.9113 57.3303 20.204 57.623 20.5677 57.623H39.9201C40.2838 57.623 40.5765 57.3303 40.5765 56.9666C40.5765 56.6031 40.2838 56.3105 39.9201 56.3105Z" fill="#605BFF"/>
<path d="M57.5078 49.2773H56.9578L57.5521 47.725C58.5455 45.1265 59.0509 42.3859 59.0509 39.6009C59.0509 29.898 52.9489 21.6054 44.3814 18.3416V9.33042C44.3814 9.32155 44.3814 9.31268 44.3814 9.31268V1.56989C44.3814 1.20626 44.0887 0.913574 43.725 0.913574H2.09309C1.72945 0.913574 1.43677 1.20626 1.43677 1.56989V9.32155V9.33042V37.428C1.43677 37.7917 1.72945 38.0844 2.09309 38.0844H13.5964C13.5609 38.5898 13.5432 39.0865 13.5432 39.6009C13.5432 42.3947 14.0487 45.1264 15.0421 47.734L15.6363 49.2861H13.5255C12.1951 49.2861 11.1042 50.3681 11.1042 51.7074C11.1042 53.0378 12.1862 54.1286 13.5255 54.1286H45.1885C45.1972 54.1286 45.2062 54.1197 45.2239 54.1197C45.3748 54.1109 45.5166 54.0489 45.6231 53.9513C45.6319 53.9424 45.6496 53.9424 45.6585 53.9336C45.7826 53.8093 45.8536 53.6409 45.8536 53.4635C45.8536 53.3748 45.8359 53.286 45.8005 53.2063C45.7915 53.1886 45.7738 53.1796 45.7649 53.1619C45.7383 53.0999 45.7029 53.0466 45.6585 53.0023C45.6052 52.949 45.5432 52.9046 45.4722 52.8782C45.4456 52.8692 45.4191 52.8603 45.4012 52.8515C45.3481 52.8338 45.3038 52.8249 45.2505 52.8249C45.2328 52.8249 45.2151 52.816 45.1972 52.816H13.5343C12.9312 52.816 12.4345 52.3193 12.4345 51.7162C12.4345 51.1131 12.9312 50.6164 13.5343 50.6164H16.5942H16.603H56H56.0088H57.5166C57.8802 50.6164 58.1729 50.3238 58.1729 49.9601C58.1729 49.5965 57.8713 49.2773 57.5078 49.2773ZM2.75827 2.22622H43.0687V8.65637H2.75827V2.22622ZM2.75827 36.7627V9.97788H43.0598V17.8714C42.0576 17.561 41.0288 17.3216 39.9822 17.1442V13.7118C39.9822 13.3482 39.6895 13.0555 39.3259 13.0555H6.4922C6.12856 13.0555 5.83588 13.3482 5.83588 13.7118V33.0201C5.83588 33.3836 6.12856 33.6763 6.4922 33.6763H14.3237C14.0576 34.6785 13.8536 35.7073 13.7206 36.754H2.75827V36.7627ZM14.7317 32.3637H7.15738V14.377H38.6608V16.9668C37.8802 16.8869 37.0908 16.8426 36.2927 16.8426C26.2794 16.8426 17.756 23.3526 14.7317 32.3637ZM16.2749 47.2462C15.3348 44.7982 14.8648 42.2173 14.8648 39.5921C14.8648 27.7783 24.4789 18.1641 36.3016 18.1641C48.1241 18.1641 57.7383 27.7783 57.7383 39.5921C57.7383 42.2263 57.2594 44.7982 56.3281 47.2462L55.5565 49.2684H17.0643L16.2749 47.2462Z" fill="#605BFF"/>
<path d="M8.25722 49.2771H2.98006C2.61641 49.2771 2.32373 49.5698 2.32373 49.9335C2.32373 50.2971 2.61641 50.5898 2.98006 50.5898H8.25722C8.62085 50.5898 8.91353 50.2971 8.91353 49.9335C8.91353 49.5698 8.62085 49.2771 8.25722 49.2771Z" fill="#605BFF"/>
<path d="M49.1795 52.9846C48.9311 52.7362 48.4877 52.7362 48.2482 52.9846C48.1861 53.0468 48.1329 53.1176 48.1064 53.1975C48.0708 53.2772 48.0531 53.3659 48.0531 53.4546C48.0531 53.6321 48.1241 53.8006 48.2482 53.9248C48.3104 53.9869 48.3812 54.0312 48.4611 54.0666C48.5409 54.1022 48.6295 54.1199 48.7182 54.1199C48.807 54.1199 48.8868 54.1022 48.9666 54.0666C49.0554 54.0312 49.1262 53.9869 49.1884 53.9248C49.3125 53.8006 49.3835 53.6321 49.3835 53.4546C49.3835 53.3659 49.3658 53.2772 49.3302 53.1975C49.2859 53.1176 49.2415 53.0468 49.1795 52.9846Z" fill="#605BFF"/>
</svg>
