<svg width="60" height="63" viewBox="0 0 60 63" fill="none" xmlns="http://www.w3.org/2000/svg">
<path d="M56.0835 27.2811L44.4039 38.6661L47.1621 54.7461C47.2821 55.4493 46.9935 56.16 46.416 56.58C46.0896 56.8179 45.7017 56.9379 45.3135 56.9379C45.0153 56.9379 44.7153 56.8668 44.4417 56.7225L30.0003 49.1304L15.5609 56.7204C14.9309 57.0543 14.164 57 13.5865 56.5779C13.009 56.1579 12.7203 55.4475 12.8403 54.7443L15.5984 38.6643L3.91716 27.2811C3.40716 26.7824 3.22155 26.0361 3.4428 25.3593C3.66405 24.6824 4.25091 24.1855 4.9578 24.0824L21.0997 21.7386L28.3184 7.10989C28.9503 5.82928 31.0503 5.82928 31.6821 7.10989L38.901 21.7386L55.0428 24.0824C55.7496 24.1855 56.3367 24.6805 56.5578 25.3593C56.7792 26.038 56.5935 26.7805 56.0835 27.2811Z" fill="#FAB400"/>
</svg>
