<svg width="60" height="60" viewBox="0 0 60 60" fill="none" xmlns="http://www.w3.org/2000/svg">
<g clip-path="url(#clip0_302_8923)">
<path d="M12.2264 39.8839C18.1443 46.9583 25.2682 52.5281 33.3991 56.469C36.4949 57.936 40.635 59.6767 45.2475 59.9752C45.5332 59.9876 45.807 60 46.0927 60C49.1887 60 51.675 58.9309 53.7015 56.7304C53.7143 56.7176 53.739 56.6929 53.7514 56.6681C54.4725 55.7977 55.293 55.0144 56.151 54.1815C56.7353 53.622 57.3319 53.0377 57.9037 52.4411C60.552 49.6807 60.552 46.1749 57.879 43.5019L50.4071 36.0298C49.1389 34.712 47.622 34.0158 46.0309 34.0158C44.4394 34.0158 42.9101 34.712 41.6047 36.0174L37.1538 40.4681C36.7435 40.2323 36.3208 40.0207 35.923 39.8216C35.4257 39.573 34.9657 39.3368 34.5554 39.0758C30.5024 36.5023 26.8223 33.1455 23.3039 28.8313C21.526 26.581 20.3324 24.6912 19.4994 22.7642C20.6681 21.7074 21.7622 20.6009 22.819 19.5193C23.192 19.1339 23.5773 18.7485 23.9628 18.363C25.3055 17.0203 26.0266 15.4662 26.0266 13.8873C26.0266 12.3083 25.3179 10.7543 23.9628 9.41153L20.2578 5.7066C19.8227 5.27145 19.4124 4.84875 18.9897 4.4136C18.1692 3.56817 17.3113 2.69789 16.4659 1.91463C15.1853 0.658931 13.681 0 12.0896 0C10.5107 0 8.99385 0.658931 7.66354 1.92706L3.01374 6.57686C1.3229 8.2677 0.365584 10.3191 0.166662 12.6937C-0.0695591 15.6651 0.477476 18.8231 1.8948 22.6399C4.07051 28.5454 7.35274 34.0282 12.2264 39.8839ZM3.20023 12.9548C3.34942 11.3013 3.98348 9.92126 5.17703 8.72771L9.80197 4.10276C10.5231 3.40655 11.3187 3.046 12.0896 3.046C12.848 3.046 13.6188 3.40655 14.3275 4.12763C15.1605 4.89848 15.9437 5.7066 16.7891 6.56445C17.2118 6.9996 17.647 7.43471 18.0821 7.88231L21.787 11.5872C22.5579 12.3581 22.9557 13.1413 22.9557 13.9121C22.9557 14.683 22.5579 15.4662 21.787 16.2371C21.4016 16.6225 21.0162 17.0203 20.6308 17.4057C19.4746 18.5744 18.3929 19.6809 17.1994 20.7377C17.1746 20.7625 17.1621 20.775 17.1372 20.7998C16.1053 21.8317 16.2669 22.8139 16.5156 23.5599C16.5281 23.5972 16.5405 23.622 16.5529 23.6594C17.5102 25.9594 18.8405 28.1475 20.9167 30.7584C24.6466 35.3585 28.5753 38.9265 32.9019 41.6741C33.4365 42.0225 34.0083 42.2959 34.5429 42.5692C35.0403 42.8182 35.5003 43.0541 35.9106 43.3155C35.9603 43.3403 35.9976 43.365 36.0473 43.3901C36.4576 43.6012 36.8554 43.7006 37.2533 43.7006C38.2477 43.7006 38.8942 43.0669 39.1057 42.8554L43.7554 38.2054C44.4765 37.4845 45.2599 37.099 46.0309 37.099C46.9755 37.099 47.7465 37.6834 48.2314 38.2054L55.7284 45.69C57.2201 47.1818 57.2077 48.798 55.6909 50.3771C55.1689 50.9366 54.6217 51.4714 54.0375 52.0305C53.1671 52.8761 52.2596 53.7465 51.4388 54.7286C50.0093 56.2703 48.306 56.9914 46.1055 56.9914C45.894 56.9914 45.6701 56.979 45.459 56.9662C41.3809 56.7052 37.5889 55.1141 34.7419 53.7589C27.0088 50.0168 20.2205 44.7079 14.5886 37.9695C9.95115 32.3871 6.83055 27.1902 4.76674 21.6204C3.48618 18.2014 3.00131 15.4538 3.20023 12.9548Z" fill="#0F0F0F"/>
</g>
<defs>
<clipPath id="clip0_302_8923">
<rect width="60" height="60" fill="white"/>
</clipPath>
</defs>
</svg>
