<svg width="60" height="60" viewBox="0 0 60 60" fill="none" xmlns="http://www.w3.org/2000/svg">
<path d="M35.208 39.8538C35.208 39.8538 42.6357 34.5049 42.135 24.7746C42.135 24.7746 44.6387 22.5763 45.0003 21.6091C45.0003 21.6091 42.8583 22.5471 41.829 22.4298C41.829 22.4298 44.277 20.554 44.138 19.03C44.138 19.03 41.7456 20.4369 40.5771 20.554C40.5771 20.554 36.1818 16.656 32.1203 20.3196C32.1203 20.3196 30.1172 22.0195 30.5067 26.2399C30.5067 26.2399 24.3909 26.2399 18.5445 19.8507C18.5445 19.8507 16.2077 24.9504 20.3249 27.9691C20.3249 27.9691 19.0175 28.2915 17.6822 27.1192C17.6822 27.1192 17.5986 32.043 22.4114 33.362C22.4114 33.362 20.9648 33.8015 19.8521 33.5085C19.8521 33.5085 20.8257 37.4651 25.1933 37.6703C25.1933 37.6703 22.4391 40.8355 16.8753 40.2493C16.8753 40.2493 24.2336 46.9757 35.208 39.8538Z" fill="#0F0F0F"/>
</svg>
