<svg width="40" height="41" viewBox="0 0 40 41" fill="none" xmlns="http://www.w3.org/2000/svg">
<path d="M24.6233 11.1953L22.2248 11.1914C19.53 11.1914 17.7886 12.9781 17.7886 15.7435V17.8423H15.3769C15.1685 17.8423 14.9998 18.0112 14.9998 18.2196V21.2606C14.9998 21.469 15.1687 21.6377 15.3769 21.6377H17.7886V29.311C17.7886 29.5194 17.9573 29.6881 18.1657 29.6881H21.3123C21.5207 29.6881 21.6894 29.5192 21.6894 29.311V21.6377H24.5092C24.7176 21.6377 24.8864 21.469 24.8864 21.2606L24.8875 18.2196C24.8875 18.1196 24.8477 18.0237 24.7771 17.9529C24.7065 17.8821 24.6103 17.8423 24.5102 17.8423H21.6894V16.0631C21.6894 15.2079 21.8932 14.7738 23.0072 14.7738L24.623 14.7733C24.8312 14.7733 24.9999 14.6043 24.9999 14.3961V11.5724C24.9999 11.3644 24.8314 11.1956 24.6233 11.1953Z" fill="#FBFBFB"/>
</svg>
