<svg width="40" height="41" viewBox="0 0 40 41" fill="none" xmlns="http://www.w3.org/2000/svg">
<g clip-path="url(#clip0_207_5594)">
<path d="M20.2219 31.6895C20.1474 31.6895 20.0729 31.6895 19.9979 31.6891C18.2341 31.6934 16.6045 31.6486 15.0197 31.5521C13.5667 31.4637 12.2404 30.9616 11.1839 30.1002C10.1645 29.269 9.46843 28.1452 9.11497 26.7602C8.80734 25.5544 8.79103 24.3708 8.77541 23.226C8.76408 22.4046 8.7524 21.4313 8.75 20.4415C8.7524 19.4476 8.76408 18.4742 8.77541 17.6528C8.79103 16.5082 8.80734 15.3246 9.11497 14.1187C9.46843 12.7337 10.1645 11.6098 11.1839 10.7786C12.2404 9.91724 13.5667 9.41513 15.0198 9.32672C16.6047 9.23042 18.2347 9.18544 20.0021 9.18973C21.7664 9.18596 23.3955 9.23042 24.9803 9.32672C26.4333 9.41513 27.7596 9.91724 28.8161 10.7786C29.8356 11.6098 30.5316 12.7337 30.885 14.1187C31.1927 15.3244 31.209 16.5082 31.2246 17.6528C31.2359 18.4742 31.2478 19.4476 31.25 20.4374V20.4415C31.2478 21.4313 31.2359 22.4046 31.2246 23.226C31.209 24.3706 31.1928 25.5543 30.885 26.7602C30.5316 28.1452 29.8356 29.269 28.8161 30.1002C27.7596 30.9616 26.4333 31.4637 24.9803 31.5521C23.4626 31.6445 21.9035 31.6895 20.2219 31.6895V31.6895ZM19.9979 29.9313C21.7329 29.9354 23.326 29.8916 24.8736 29.7976C25.9722 29.7308 26.9248 29.3742 27.7052 28.7379C28.4266 28.1496 28.9234 27.338 29.1817 26.3255C29.4379 25.3218 29.4526 24.2441 29.4669 23.202C29.478 22.3861 29.4897 21.4196 29.4921 20.4394C29.4897 19.4591 29.478 18.4928 29.4669 17.6769C29.4526 16.6347 29.4379 15.557 29.1817 14.5531C28.9234 13.5407 28.4266 12.7291 27.7052 12.1408C26.9248 11.5046 25.9722 11.1481 24.8736 11.0813C23.326 10.987 21.7329 10.9436 20.002 10.9474C18.2673 10.9433 16.674 10.987 15.1264 11.0813C14.0278 11.1481 13.0752 11.5046 12.2948 12.1408C11.5734 12.7291 11.0766 13.5407 10.8183 14.5531C10.5621 15.557 10.5474 16.6345 10.5331 17.6769C10.522 18.4935 10.5103 19.4604 10.5079 20.4415C10.5103 21.4182 10.522 22.3854 10.5331 23.202C10.5474 24.2441 10.5621 25.3218 10.8183 26.3255C11.0766 27.338 11.5734 28.1496 12.2948 28.7379C13.0752 29.3741 14.0278 29.7306 15.1264 29.7974C16.674 29.8916 18.2676 29.9356 19.9979 29.9313V29.9313ZM19.956 25.9326C16.9271 25.9326 14.4626 23.4684 14.4626 20.4394C14.4626 17.4104 16.9271 14.9462 19.956 14.9462C22.985 14.9462 25.4493 17.4104 25.4493 20.4394C25.4493 23.4684 22.985 25.9326 19.956 25.9326V25.9326ZM19.956 16.7041C17.8963 16.7041 16.2205 18.3798 16.2205 20.4394C16.2205 22.499 17.8963 24.1748 19.956 24.1748C22.0158 24.1748 23.6915 22.499 23.6915 20.4394C23.6915 18.3798 22.0158 16.7041 19.956 16.7041V16.7041ZM26.0646 13.1884C25.3366 13.1884 24.7462 13.7786 24.7462 14.5068C24.7462 15.235 25.3366 15.8252 26.0646 15.8252C26.7928 15.8252 27.383 15.235 27.383 14.5068C27.383 13.7786 26.7928 13.1884 26.0646 13.1884Z" fill="#FBFBFB"/>
</g>
<defs>
<clipPath id="clip0_207_5594">
<rect y="0.439453" width="40" height="40" rx="6" fill="white"/>
</clipPath>
</defs>
</svg>
