<svg width="40" height="41" viewBox="0 0 40 41" fill="none" xmlns="http://www.w3.org/2000/svg">
<path d="M28.75 29.1892V22.7798C28.75 19.6299 28.0719 17.2236 24.3969 17.2236C22.625 17.2236 21.4438 18.1861 20.9625 19.1049H20.9188V17.508H17.4407V29.1892H21.0719V23.3923C21.0719 21.8611 21.3563 20.3955 23.2375 20.3955C25.0969 20.3955 25.1187 22.1236 25.1187 23.4798V29.1673H28.75V29.1892Z" fill="#FBFBFB"/>
<path d="M11.5344 17.5088H15.1656V29.19H11.5344V17.5088Z" fill="#FBFBFB"/>
<path d="M13.35 11.6895C12.1906 11.6895 11.25 12.6301 11.25 13.7894C11.25 14.9488 12.1906 15.9113 13.35 15.9113C14.5094 15.9113 15.45 14.9488 15.45 13.7894C15.45 12.6301 14.5094 11.6895 13.35 11.6895V11.6895Z" fill="#FBFBFB"/>
</svg>
