<svg width="40" height="41" viewBox="0 0 40 41" fill="none" xmlns="http://www.w3.org/2000/svg">
<path d="M23.472 27.0086C23.472 27.0086 28.4238 23.4428 28.09 16.9558C28.09 16.9558 29.7591 15.4904 30.0002 14.8456C30.0002 14.8456 28.5722 15.4708 27.886 15.3927C27.886 15.3927 29.518 14.1422 29.4253 13.1262C29.4253 13.1262 27.8304 14.064 27.0514 14.1422C27.0514 14.1422 24.1212 11.5435 21.4135 13.9859C21.4135 13.9859 20.0781 15.1191 20.3378 17.9327C20.3378 17.9327 16.2606 17.9327 12.363 13.6732C12.363 13.6732 10.8051 17.073 13.5499 19.0855C13.5499 19.0855 12.6783 19.3005 11.7881 18.5189C11.7881 18.5189 11.7324 21.8015 14.9409 22.6807C14.9409 22.6807 13.9765 22.9738 13.2347 22.7784C13.2347 22.7784 13.8838 25.4162 16.7955 25.553C16.7955 25.553 14.9594 27.6632 11.2502 27.2724C11.2502 27.2724 16.1557 31.7566 23.472 27.0086Z" fill="#FBFBFB"/>
</svg>
